<?xml version="1.0" encoding="UTF-8"?>
<svg id="Layer_1" data-name="Layer 1" xmlns="http://www.w3.org/2000/svg" viewBox="0 0 612 251.72">
  <defs>
    <style>
      .cls-1 {
        stroke-width: 0px;
      }
    </style>
  </defs>
  <path class="cls-1" d="M21.96,86.03h48.4v18.18H0V0h70.22v18.18H21.96v24.48h44.62v17.84H21.96v25.53ZM79.09,104.21h21.61V0h-21.61v104.21ZM178.46,47.31c1.86,4.97,2.8,10.78,2.8,17.45v5.87h-53.24c.14,3.69.84,6.92,2.18,9.62,1.49,3.01,3.58,5.32,6.26,6.92s5.77,2.41,9.27,2.41c2.42,0,4.62-.35,6.57-1.05,1.96-.7,3.65-1.72,5.07-3.08,1.42-1.35,2.48-2.98,3.18-4.9l20,1.33c-.98,4.8-3.02,8.99-6.12,12.55s-7.1,6.34-11.99,8.32c-4.9,1.98-10.56,2.97-17,2.97-8.02,0-14.94-1.63-20.77-4.9-5.83-3.26-10.29-7.91-13.39-13.95-3.1-6.04-4.65-13.18-4.65-21.44s1.55-15.06,4.65-21.12c3.1-6.06,7.48-10.79,13.15-14.2,5.66-3.4,12.32-5.11,19.97-5.11,5.18,0,10,.83,14.48,2.48,4.48,1.66,8.39,4.13,11.75,7.41,3.36,3.29,5.97,7.41,7.83,12.38ZM129.92,50.29c-.98,2.1-1.59,4.43-1.83,6.99h32.42c-.26-2.52-.79-4.82-1.63-6.85-1.21-2.94-3.02-5.21-5.42-6.82s-5.37-2.41-8.92-2.41-6.54.82-8.99,2.45c-2.45,1.63-4.33,3.85-5.63,6.64ZM275.73,25.04c-5.69,0-10.63,1.35-14.83,4.06-4.2,2.7-7.09,6.32-8.67,10.84h-.84c-1.26-4.57-3.77-8.19-7.52-10.88-3.75-2.68-8.31-4.02-13.67-4.02s-9.82,1.33-13.64,3.99c-3.82,2.66-6.55,6.29-8.18,10.91h-.98v-13.92h-20.49s0,78.19,0,78.19h21.61v-46.86c0-2.94.56-5.47,1.68-7.59,1.12-2.12,2.63-3.79,4.55-5,1.91-1.21,4.08-1.82,6.5-1.82,3.54,0,6.41,1.13,8.6,3.39,2.19,2.26,3.29,5.28,3.29,9.06v48.82h20.98v-47.7c0-4.06,1.11-7.33,3.32-9.83,2.21-2.49,5.28-3.74,9.2-3.74,3.45,0,6.33,1.07,8.64,3.22,2.31,2.15,3.46,5.41,3.46,9.79v48.26h21.68v-52.59c0-8.49-2.3-15.04-6.89-19.65-4.59-4.62-10.53-6.92-17.8-6.92ZM378.18,47.31c1.87,4.97,2.8,10.78,2.8,17.45v5.87h-53.24c.14,3.69.84,6.92,2.18,9.62,1.49,3.01,3.58,5.32,6.26,6.92,2.68,1.61,5.77,2.41,9.27,2.41,2.42,0,4.61-.35,6.57-1.05,1.96-.7,3.65-1.72,5.07-3.08,1.42-1.35,2.48-2.98,3.18-4.9l20,1.33c-.98,4.8-3.02,8.99-6.12,12.55-3.1,3.57-7.1,6.34-11.99,8.32-4.9,1.98-10.56,2.97-17,2.97-8.02,0-14.95-1.63-20.77-4.9-5.83-3.26-10.29-7.91-13.39-13.95-3.1-6.04-4.65-13.18-4.65-21.44s1.55-15.06,4.65-21.12c3.1-6.06,7.48-10.79,13.15-14.2,5.67-3.4,12.32-5.11,19.97-5.11,5.17,0,10,.83,14.48,2.48,4.47,1.66,8.39,4.13,11.75,7.41,3.36,3.29,5.97,7.41,7.83,12.38ZM329.64,50.29c-.98,2.1-1.59,4.43-1.83,6.99h32.41c-.26-2.52-.79-4.82-1.62-6.85-1.21-2.94-3.02-5.21-5.42-6.82-2.4-1.61-5.37-2.41-8.92-2.41s-6.54.82-8.99,2.45c-2.45,1.63-4.32,3.85-5.63,6.64ZM445.83,28.61c-4.03-2.38-8.75-3.57-14.16-3.57-5.83,0-10.68,1.33-14.55,3.99-3.87,2.66-6.69,6.29-8.46,10.91h-.77v-13.92h-21.26v78.19h21.61v-45.18c0-3.36.63-6.22,1.89-8.6,1.26-2.38,3.01-4.21,5.25-5.49,2.24-1.28,4.8-1.92,7.69-1.92,4.34,0,7.74,1.36,10.21,4.09,2.47,2.73,3.71,6.47,3.71,11.23v45.88h21.61v-49.73c0-6.11-1.12-11.35-3.36-15.74-2.24-4.38-5.37-7.76-9.41-10.14ZM504.6,87.56c-1.03.14-1.96.21-2.8.21-2.57,0-4.43-.62-5.6-1.85-1.17-1.23-1.75-3.16-1.75-5.77v-37.77h14.76v-16.37h-14.76V7.41h-21.61v18.6h-10.7v16.37h10.7v40.64c0,7.09,2.12,12.58,6.36,16.47,4.24,3.89,10.26,5.84,18.05,5.84,2.14,0,4.32-.16,6.54-.49,2.22-.33,4.51-.84,6.89-1.54l-3.43-16.23c-.75.19-1.63.35-2.66.49ZM578.58,39.52c1.82,3.36,2.73,7.34,2.73,11.96v52.73h-20.63v-10.91h-.56c-1.26,2.47-2.94,4.63-5.04,6.47-2.1,1.84-4.61,3.29-7.55,4.34-2.94,1.05-6.34,1.57-10.21,1.57-4.94,0-9.38-.87-13.32-2.62-3.94-1.75-7.03-4.35-9.27-7.8-2.24-3.45-3.36-7.74-3.36-12.87,0-4.38.79-8.03,2.38-10.95,1.59-2.91,3.75-5.28,6.5-7.1,2.75-1.82,5.88-3.19,9.37-4.13,3.5-.93,7.2-1.58,11.12-1.96,4.52-.42,8.16-.84,10.91-1.26,2.75-.42,4.77-1.06,6.05-1.92,1.28-.86,1.92-2.11,1.92-3.74v-.35c0-3.22-1.01-5.71-3.04-7.48-2.03-1.77-4.88-2.66-8.57-2.66-3.87,0-6.96.85-9.27,2.55-2.31,1.7-3.84,3.86-4.58,6.47l-20.07-1.61c1.03-4.76,3.03-8.87,6.01-12.34,2.99-3.47,6.84-6.15,11.58-8.04,4.73-1.89,10.22-2.83,16.47-2.83,4.34,0,8.49.51,12.45,1.54,3.96,1.03,7.49,2.6,10.59,4.72,3.1,2.12,5.56,4.86,7.38,8.22ZM559.77,67.98c-.65.42-1.57.82-2.76,1.19-1.19.37-2.51.7-3.95.98-1.45.28-2.89.52-4.34.73-1.45.21-2.75.41-3.92.59-2.56.37-4.8.97-6.71,1.78-1.91.82-3.39,1.91-4.44,3.29-1.05,1.38-1.57,3.09-1.57,5.14,0,2.94,1.07,5.18,3.22,6.71,2.14,1.54,4.9,2.31,8.25,2.31,3.17,0,5.98-.64,8.43-1.92,2.45-1.28,4.36-3.01,5.73-5.18,1.38-2.17,2.06-4.6,2.06-7.31v-8.32ZM590.39,0v104.21h21.61V0h-21.61ZM342.88,141.98h-100.73v100.73h100.73v-100.73M351.89,132.97v118.74h-118.74v-118.74h118.74ZM472.94,141.98h-100.73v100.73h100.73v-100.73M481.95,132.97v118.74h-118.74v-118.74h118.74ZM603,141.98h-100.73v100.73h100.73v-100.73M612,132.97v118.74h-118.74v-118.74h118.74ZM253.15,237.79l1.64-5.73h.06l1.64,5.73h1.46l2.3-8.17h-1.59l-1.47,6h-.07l-1.58-6h-1.45l-1.57,6h-.08l-1.47-6h-1.59l2.3,8.17h1.46ZM262.64,230.57c.16-.15.24-.34.24-.55s-.08-.4-.24-.56c-.16-.15-.36-.23-.59-.23s-.43.08-.59.23c-.17.15-.25.34-.25.56s.08.4.25.55c.16.15.36.23.59.23s.43-.08.59-.23ZM262.76,237.79v-6.12h-1.44v6.12h1.44ZM265.97,233.45c.11-.21.26-.36.46-.48.19-.11.42-.17.67-.17.37,0,.66.12.87.35s.32.55.32.96v3.68h1.44v-3.9c0-.49-.08-.9-.26-1.25s-.42-.61-.73-.79-.68-.27-1.11-.27c-.46,0-.84.1-1.15.3-.31.2-.53.47-.68.82h-.07v-1.04h-1.38v6.12h1.44v-3.59c0-.3.05-.55.17-.75ZM274.46,237.73c.23-.12.42-.26.56-.43s.25-.32.32-.47h.09v.96h1.42v-8.17h-1.45v3.05h-.06c-.07-.15-.18-.31-.32-.48-.14-.17-.32-.31-.55-.43-.23-.12-.53-.18-.89-.18-.47,0-.9.12-1.28.36s-.69.6-.91,1.07c-.23.47-.34,1.04-.34,1.72s.11,1.24.33,1.71c.22.47.52.83.9,1.08.38.25.81.37,1.29.37.35,0,.64-.06.87-.17ZM273.19,236.46c-.22-.17-.38-.41-.49-.71-.11-.3-.17-.64-.17-1.02s.06-.72.16-1.01c.11-.3.27-.53.49-.69.22-.17.48-.25.8-.25s.57.08.79.24.38.39.49.68c.11.29.17.64.17,1.03s-.06.74-.17,1.04-.27.53-.49.69c-.22.17-.48.25-.78.25s-.58-.09-.8-.26ZM282.74,237.52c.44-.26.78-.63,1.02-1.1s.36-1.03.36-1.66-.12-1.19-.36-1.66c-.24-.48-.58-.85-1.02-1.11-.44-.26-.96-.39-1.56-.39s-1.12.13-1.56.39c-.44.26-.78.63-1.02,1.11-.24.47-.36,1.03-.36,1.66s.12,1.19.36,1.66c.24.47.58.84,1.02,1.1.44.26.96.4,1.56.4s1.12-.13,1.56-.4ZM280.36,236.49c-.22-.18-.38-.42-.49-.72-.11-.3-.16-.64-.16-1.01s.05-.71.16-1.02c.11-.3.27-.55.49-.73.22-.18.49-.27.83-.27s.6.09.81.27c.22.18.38.42.49.73.11.3.16.64.16,1.02s-.05.71-.16,1.01c-.11.3-.27.55-.49.72s-.49.27-.81.27-.61-.09-.83-.27ZM288.05,237.79l1.15-4.14h.08l1.15,4.14h1.5l1.74-6.12h-1.48l-1.06,4.28h-.06l-1.1-4.28h-1.46l-1.1,4.31h-.06l-1.08-4.31h-1.47l1.73,6.12h1.51ZM299.92,230.87v6.93h1.47v-6.93h2.52v-1.24h-6.51v1.24h2.52ZM306.53,230.57c.16-.15.24-.34.24-.55s-.08-.4-.24-.56c-.16-.15-.36-.23-.59-.23s-.43.08-.59.23c-.17.15-.25.34-.25.56s.08.4.25.55c.16.15.36.23.59.23s.43-.08.59-.23ZM306.66,237.79v-6.12h-1.44v6.12h1.44ZM309.86,233.45c.11-.21.26-.36.46-.48.19-.11.42-.17.67-.17.37,0,.66.12.87.35s.32.55.32.96v3.68h1.44v-3.9c0-.49-.08-.9-.26-1.25s-.42-.61-.73-.79-.68-.27-1.11-.27c-.46,0-.84.1-1.15.3-.31.2-.53.47-.68.82h-.07v-1.04h-1.38v6.12h1.44v-3.59c0-.3.05-.55.17-.75ZM314.75,231.67v1.12h3.52v-1.12h-3.52ZM315.62,236.19c0,.38.08.7.25.96.17.26.4.44.69.56.29.12.62.18.98.17.21,0,.38-.02.52-.06s.25-.06.33-.09l-.24-1.13s-.1.02-.17.04c-.08.01-.16.02-.25.02-.12,0-.23-.02-.33-.06-.1-.04-.18-.11-.24-.21-.06-.1-.09-.25-.09-.44v-5.75h-1.44v5.99ZM320.91,230.57c.16-.15.24-.34.24-.55s-.08-.4-.24-.56c-.16-.15-.36-.23-.59-.23s-.43.08-.59.23c-.17.15-.25.34-.25.56s.08.4.25.55c.16.15.36.23.59.23s.43-.08.59-.23ZM321.03,237.79v-6.12h-1.44v6.12h1.44ZM324.24,233.45c.11-.21.26-.36.46-.48.19-.11.42-.17.67-.17.37,0,.66.12.87.35s.32.55.32.96v3.68h1.44v-3.9c0-.49-.08-.9-.26-1.25s-.42-.61-.73-.79-.68-.27-1.11-.27c-.46,0-.84.1-1.15.3-.31.2-.53.47-.68.82h-.07v-1.04h-1.38v6.12h1.44v-3.59c0-.3.05-.55.17-.75ZM333.72,239.96c.43-.17.78-.43,1.02-.77s.38-.78.38-1.3v-6.22h-1.42v1.01h-.08c-.07-.15-.18-.31-.32-.48-.14-.17-.32-.31-.56-.43-.23-.12-.53-.18-.89-.18-.47,0-.9.12-1.28.36s-.69.59-.91,1.06c-.23.46-.34,1.03-.34,1.7s.11,1.22.34,1.66c.22.44.53.78.91,1,.38.22.81.33,1.28.33.35,0,.64-.05.87-.16.23-.11.42-.24.56-.39s.25-.31.33-.46h.07v1.16c0,.45-.13.78-.4.97-.27.2-.61.3-1.02.3-.29,0-.53-.04-.72-.12-.19-.08-.34-.18-.45-.29s-.2-.24-.26-.36l-1.3.32c.09.28.24.54.47.78s.52.42.9.56.82.21,1.34.21c.55,0,1.04-.09,1.48-.26ZM331.46,236.34c-.22-.16-.38-.37-.49-.65-.11-.28-.17-.61-.17-.98s.06-.7.16-.99c.11-.29.27-.52.49-.69.22-.17.48-.25.8-.25s.57.08.79.24c.21.16.38.39.49.68.11.29.17.63.17,1.01s-.06.73-.17,1c-.11.28-.27.49-.49.64-.22.15-.48.22-.78.22s-.58-.08-.8-.23ZM380.59,237.79v-6.93h1.36c.37,0,.67.06.91.18.23.12.41.3.52.52.11.22.17.47.17.77s-.06.55-.17.77-.29.4-.52.53-.53.19-.9.19h-1.83v1.22h2.03c.63,0,1.16-.12,1.59-.35.43-.23.76-.55.98-.96.22-.41.33-.87.33-1.4s-.11-.98-.33-1.39c-.22-.41-.54-.73-.97-.96-.43-.23-.95-.35-1.58-.35h-3.06v8.17h1.48ZM388.87,237.78c.24-.09.44-.21.6-.35s.28-.31.37-.48h.05v.84h1.39v-4.1c0-.41-.07-.74-.22-1.02-.15-.27-.34-.49-.58-.64s-.51-.27-.8-.34c-.29-.07-.58-.1-.88-.1-.43,0-.82.06-1.17.19-.35.13-.65.32-.9.57-.24.25-.42.56-.53.94l1.35.19c.07-.21.21-.39.42-.55s.49-.23.84-.23c.33,0,.59.08.77.25.18.17.27.4.27.7v.02c0,.14-.05.24-.15.3-.1.06-.27.11-.49.14s-.51.06-.87.1c-.3.03-.58.08-.86.15-.28.07-.53.17-.75.31-.22.13-.39.32-.52.54-.13.23-.19.51-.19.86,0,.4.09.74.27,1.01.18.27.42.48.73.62.31.14.66.21,1.05.21.32,0,.6-.04.84-.13ZM387.67,236.65c-.19-.14-.29-.34-.29-.6,0-.19.05-.34.15-.46.1-.12.23-.21.4-.28.17-.07.36-.11.58-.14.1-.01.21-.03.34-.05s.26-.04.39-.06c.13-.02.25-.05.36-.08.11-.03.18-.07.23-.1v.72c0,.23-.06.44-.17.63-.12.19-.28.34-.49.46s-.46.17-.75.17-.55-.07-.74-.2ZM394.16,230.57c.16-.15.24-.34.24-.55s-.08-.4-.24-.56c-.16-.15-.36-.23-.59-.23s-.43.08-.59.23c-.17.15-.25.34-.25.56s.08.4.25.55c.16.15.36.23.59.23s.43-.08.59-.23ZM394.28,237.79v-6.12h-1.44v6.12h1.44ZM397.49,233.45c.11-.21.26-.36.46-.48.19-.11.42-.17.67-.17.37,0,.66.12.87.35s.32.55.32.96v3.68h1.44v-3.9c0-.49-.08-.9-.26-1.25s-.42-.61-.73-.79-.68-.27-1.11-.27c-.46,0-.84.1-1.15.3-.31.2-.53.47-.68.82h-.07v-1.04h-1.38v6.12h1.44v-3.59c0-.3.05-.55.17-.75ZM402.37,231.67v1.12h3.52v-1.12h-3.52ZM403.24,236.19c0,.38.08.7.25.96.17.26.4.44.69.56.29.12.62.18.98.17.21,0,.38-.02.52-.06s.25-.06.33-.09l-.24-1.13s-.1.02-.17.04c-.08.01-.16.02-.25.02-.12,0-.23-.02-.33-.06-.1-.04-.18-.11-.24-.21-.06-.1-.09-.25-.09-.44v-5.75h-1.44v5.99ZM411.66,237.79v-6.93h1.36c.37,0,.67.06.91.18.23.12.41.3.52.52.11.22.17.47.17.77s-.06.55-.17.77-.29.4-.52.53-.53.19-.9.19h-1.83v1.22h2.03c.63,0,1.16-.12,1.59-.35.43-.23.76-.55.98-.96.22-.41.33-.87.33-1.4s-.11-.98-.33-1.39c-.22-.41-.54-.73-.97-.96-.43-.23-.95-.35-1.58-.35h-3.06v8.17h1.48ZM418.9,237.79v-3.6c0-.26.06-.49.18-.69.12-.2.28-.36.49-.47.21-.11.45-.17.71-.17.12,0,.25,0,.38.03s.23.04.29.06v-1.33c-.07-.01-.15-.02-.25-.03-.1,0-.19-.01-.27-.01-.35,0-.66.1-.93.29-.27.19-.46.47-.58.82h-.06v-1.02h-1.4v6.12h1.44ZM425.99,237.52c.44-.26.78-.63,1.02-1.1.24-.47.36-1.03.36-1.66s-.12-1.19-.36-1.66c-.24-.48-.58-.85-1.02-1.11-.44-.26-.96-.39-1.56-.39s-1.12.13-1.56.39c-.44.26-.78.63-1.02,1.11-.24.47-.36,1.03-.36,1.66s.12,1.19.36,1.66c.24.47.58.84,1.02,1.1.44.26.96.4,1.56.4s1.12-.13,1.56-.4ZM423.61,236.49c-.22-.18-.38-.42-.49-.72-.11-.3-.16-.64-.16-1.01s.05-.71.16-1.02c.11-.3.27-.55.49-.73.22-.18.49-.27.83-.27s.6.09.81.27c.22.18.38.42.49.73.11.3.16.64.16,1.02s-.05.71-.16,1.01c-.11.3-.27.55-.49.72s-.49.27-.81.27-.61-.09-.83-.27ZM428.24,231.67v1.12h3.52v-1.12h-3.52ZM429.11,236.19c0,.38.08.7.25.96.17.26.4.44.69.56.29.12.62.18.98.17.21,0,.38-.02.52-.06s.25-.06.33-.09l-.24-1.13s-.1.02-.17.04c-.08.01-.16.02-.25.02-.12,0-.23-.02-.33-.06-.1-.04-.18-.11-.24-.21-.06-.1-.09-.25-.09-.44v-5.75h-1.44v5.99ZM436.99,237.69c.37-.14.67-.35.91-.61.24-.26.4-.57.48-.93l-1.35-.15c-.06.17-.16.32-.28.43-.13.12-.27.21-.44.27-.17.06-.36.09-.57.09-.31,0-.59-.07-.82-.2-.23-.13-.42-.33-.55-.58-.13-.25-.19-.56-.19-.91v-.85c0-.27.07-.53.19-.75.12-.23.3-.42.52-.56.22-.14.48-.21.78-.21.28,0,.52.06.73.19.21.12.37.3.49.51.12.22.18.46.18.74h-3.64v.97h5.02v-.44c0-.54-.07-1-.22-1.39-.15-.39-.35-.71-.61-.96s-.56-.44-.89-.56c-.34-.12-.69-.18-1.07-.18-.58,0-1.09.13-1.53.4-.43.27-.77.64-1.01,1.12-.24.48-.36,1.03-.36,1.66s.12,1.2.36,1.67c.24.47.58.84,1.03,1.09s.97.39,1.59.39c.48,0,.9-.07,1.27-.22ZM443.79,237.63c.38-.19.68-.45.9-.78.22-.33.35-.72.38-1.15h-1.38c-.04.22-.12.41-.24.56-.11.16-.26.27-.43.35s-.36.12-.57.12c-.3,0-.56-.08-.78-.24-.22-.16-.39-.39-.52-.69s-.18-.66-.18-1.07.06-.77.18-1.06c.12-.29.3-.52.52-.68.22-.16.48-.24.78-.24.35,0,.63.1.84.3.21.2.34.44.4.74h1.38c-.03-.44-.16-.83-.39-1.16-.23-.33-.53-.59-.92-.77-.38-.18-.83-.27-1.32-.27-.6,0-1.12.13-1.55.4-.44.27-.78.64-1.02,1.12-.24.48-.36,1.03-.36,1.65s.12,1.17.35,1.64c.24.47.57.85,1.01,1.12.44.27.96.4,1.57.4.51,0,.96-.09,1.34-.28ZM445.91,231.67v1.12h3.52v-1.12h-3.52ZM446.78,236.19c0,.38.08.7.25.96.17.26.4.44.69.56.29.12.62.18.98.17.21,0,.38-.02.52-.06s.25-.06.33-.09l-.24-1.13s-.1.02-.17.04c-.08.01-.16.02-.25.02-.12,0-.23-.02-.33-.06-.1-.04-.18-.11-.24-.21-.06-.1-.09-.25-.09-.44v-5.75h-1.44v5.99ZM452.07,230.57c.16-.15.24-.34.24-.55s-.08-.4-.24-.56c-.16-.15-.36-.23-.59-.23s-.43.08-.59.23c-.17.15-.25.34-.25.56s.08.4.25.55c.16.15.36.23.59.23s.43-.08.59-.23ZM452.2,237.79v-6.12h-1.44v6.12h1.44ZM458.02,237.52c.44-.26.78-.63,1.02-1.1s.36-1.03.36-1.66-.12-1.19-.36-1.66c-.24-.48-.58-.85-1.02-1.11-.44-.26-.96-.39-1.56-.39s-1.12.13-1.56.39c-.44.26-.78.63-1.02,1.11-.24.47-.36,1.03-.36,1.66s.12,1.19.36,1.66c.24.47.58.84,1.02,1.1.44.26.96.4,1.56.4s1.12-.13,1.56-.4ZM455.65,236.49c-.22-.18-.38-.42-.49-.72-.11-.3-.16-.64-.16-1.01s.05-.71.16-1.02c.11-.3.27-.55.49-.73.22-.18.49-.27.83-.27s.6.09.81.27c.22.18.38.42.49.73.11.3.16.64.16,1.02s-.05.71-.16,1.01c-.11.3-.27.55-.49.72s-.49.27-.81.27-.61-.09-.83-.27ZM462.34,233.45c.11-.21.26-.36.46-.48.19-.11.42-.17.67-.17.37,0,.66.12.87.35s.32.55.32.96v3.68h1.44v-3.9c0-.49-.08-.9-.26-1.25s-.42-.61-.73-.79-.68-.27-1.11-.27c-.46,0-.84.1-1.15.3-.31.2-.53.47-.68.82h-.07v-1.04h-1.38v6.12h1.44v-3.59c0-.3.05-.55.17-.75ZM513.87,231.17c-.2-.35-.45-.66-.75-.9-.31-.25-.65-.43-1.04-.56s-.81-.19-1.27-.19c-.71,0-1.35.17-1.91.5-.56.33-1.01.81-1.34,1.44s-.49,1.38-.49,2.26.16,1.63.49,2.26.77,1.11,1.33,1.44c.56.33,1.2.5,1.92.5.49,0,.93-.07,1.33-.22s.75-.35,1.04-.61c.3-.26.54-.56.72-.9s.3-.7.36-1.09h-1.49c-.05.23-.13.44-.24.63-.12.19-.26.34-.44.47s-.36.22-.58.29c-.21.06-.44.1-.69.1-.44,0-.83-.11-1.17-.32-.34-.22-.61-.54-.8-.97-.2-.43-.29-.95-.29-1.58s.1-1.13.29-1.56c.19-.43.46-.75.81-.97.34-.22.74-.33,1.18-.33.25,0,.48.03.7.1.22.07.41.17.58.3.17.13.31.29.43.49.11.19.19.41.23.65h1.49c-.06-.45-.19-.86-.39-1.21ZM519.65,237.69c.37-.14.67-.35.91-.61.24-.26.4-.57.48-.93l-1.35-.15c-.06.17-.16.32-.28.43-.13.12-.27.21-.44.27-.17.06-.36.09-.57.09-.31,0-.59-.07-.82-.2-.23-.13-.42-.33-.55-.58-.13-.25-.19-.56-.19-.91v-.85c0-.27.07-.53.19-.75.12-.23.3-.42.52-.56.22-.14.48-.21.78-.21.28,0,.52.06.73.19.21.12.37.3.49.51.12.22.18.46.18.74h-3.64v.97h5.02v-.44c0-.54-.07-1-.22-1.39-.15-.39-.35-.71-.61-.96s-.56-.44-.89-.56c-.34-.12-.69-.18-1.07-.18-.58,0-1.09.13-1.53.4-.43.27-.77.64-1.01,1.12-.24.48-.36,1.03-.36,1.66s.12,1.2.36,1.67c.24.47.58.84,1.03,1.09s.97.39,1.59.39c.48,0,.9-.07,1.27-.22ZM523.88,237.79v-3.6c0-.26.06-.49.18-.69.12-.2.28-.36.49-.47.21-.11.45-.17.71-.17.12,0,.25,0,.38.03s.23.04.29.06v-1.33c-.07-.01-.15-.02-.25-.03-.1,0-.19-.01-.27-.01-.35,0-.66.1-.93.29-.27.19-.46.47-.58.82h-.06v-1.02h-1.4v6.12h1.44ZM529.48,237.78c.24-.09.44-.21.6-.35s.28-.31.37-.48h.05v.84h1.39v-4.1c0-.41-.07-.74-.22-1.02-.15-.27-.34-.49-.58-.64s-.51-.27-.8-.34c-.29-.07-.58-.1-.88-.1-.43,0-.82.06-1.17.19-.35.13-.65.32-.9.57-.24.25-.42.56-.53.94l1.35.19c.07-.21.21-.39.42-.55s.49-.23.84-.23c.33,0,.59.08.77.25.18.17.27.4.27.7v.02c0,.14-.05.24-.15.3-.1.06-.27.11-.49.14s-.51.06-.87.1c-.3.03-.58.08-.86.15-.28.07-.53.17-.75.31-.22.13-.39.32-.52.54-.13.23-.19.51-.19.86,0,.4.09.74.27,1.01.18.27.42.48.73.62.31.14.66.21,1.05.21.32,0,.6-.04.84-.13ZM528.28,236.65c-.19-.14-.29-.34-.29-.6,0-.19.05-.34.15-.46.1-.12.23-.21.4-.28.17-.07.36-.11.58-.14.1-.01.21-.03.34-.05s.26-.04.39-.06c.13-.02.25-.05.36-.08.11-.03.18-.07.23-.1v.72c0,.23-.06.44-.17.63-.12.19-.28.34-.49.46s-.46.17-.75.17-.55-.07-.74-.2ZM534.89,237.79v-3.72c0-.25.05-.47.15-.66s.24-.34.41-.44c.17-.1.36-.16.57-.16.31,0,.55.09.74.28.19.19.29.44.29.76v3.95h1.42v-3.82c0-.35.1-.63.29-.84.19-.22.47-.32.81-.32.29,0,.54.09.74.27.2.18.3.45.3.84v3.89h1.45v-4.11c0-.68-.18-1.2-.53-1.56-.36-.36-.82-.53-1.38-.53-.44,0-.83.1-1.15.3-.32.2-.55.47-.69.81h-.06c-.12-.34-.32-.62-.6-.82s-.64-.3-1.05-.3-.76.1-1.06.3-.51.47-.63.82h-.07v-1.04h-1.38v6.12h1.44ZM544.96,230.57c.16-.15.24-.34.24-.55s-.08-.4-.24-.56c-.16-.15-.36-.23-.59-.23s-.43.08-.59.23c-.17.15-.25.34-.25.56s.08.4.25.55c.16.15.36.23.59.23s.43-.08.59-.23ZM545.08,237.79v-6.12h-1.44v6.12h1.44ZM550.69,237.63c.38-.19.68-.45.9-.78.22-.33.35-.72.38-1.15h-1.38c-.04.22-.12.41-.24.56-.11.16-.26.27-.43.35s-.36.12-.57.12c-.3,0-.56-.08-.78-.24-.22-.16-.39-.39-.52-.69s-.18-.66-.18-1.07.06-.77.18-1.06c.12-.29.3-.52.52-.68.22-.16.48-.24.78-.24.35,0,.63.1.84.3.21.2.34.44.4.74h1.38c-.03-.44-.16-.83-.39-1.16-.23-.33-.53-.59-.92-.77-.38-.18-.83-.27-1.32-.27-.6,0-1.12.13-1.55.4-.44.27-.78.64-1.02,1.12-.24.48-.36,1.03-.36,1.65s.12,1.17.35,1.64c.24.47.57.85,1.01,1.12.44.27.96.4,1.57.4.51,0,.96-.09,1.34-.28ZM562.84,231.17c-.2-.35-.45-.66-.75-.9-.31-.25-.65-.43-1.04-.56s-.81-.19-1.27-.19c-.71,0-1.35.17-1.91.5-.56.33-1.01.81-1.34,1.44s-.49,1.38-.49,2.26.16,1.63.49,2.26.77,1.11,1.33,1.44c.56.33,1.2.5,1.92.5.49,0,.93-.07,1.33-.22s.75-.35,1.04-.61c.3-.26.54-.56.72-.9s.3-.7.36-1.09h-1.49c-.05.23-.13.44-.24.63-.12.19-.26.34-.44.47s-.36.22-.58.29c-.21.06-.44.1-.69.1-.44,0-.83-.11-1.17-.32-.34-.22-.61-.54-.8-.97-.2-.43-.29-.95-.29-1.58s.1-1.13.29-1.56c.19-.43.46-.75.81-.97.34-.22.74-.33,1.18-.33.25,0,.48.03.7.1.22.07.41.17.58.3.17.13.31.29.43.49.11.19.19.41.23.65h1.49c-.06-.45-.19-.86-.39-1.21ZM568.86,237.52c.44-.26.78-.63,1.02-1.1s.36-1.03.36-1.66-.12-1.19-.36-1.66c-.24-.48-.58-.85-1.02-1.11-.44-.26-.96-.39-1.56-.39s-1.12.13-1.56.39c-.44.26-.78.63-1.02,1.11-.24.47-.36,1.03-.36,1.66s.12,1.19.36,1.66c.24.47.58.84,1.02,1.1.44.26.96.4,1.56.4s1.12-.13,1.56-.4ZM566.49,236.49c-.22-.18-.38-.42-.49-.72-.11-.3-.16-.64-.16-1.01s.05-.71.16-1.02c.11-.3.27-.55.49-.73.22-.18.49-.27.83-.27s.6.09.81.27c.22.18.38.42.49.73.11.3.16.64.16,1.02s-.05.71-.16,1.01c-.11.3-.27.55-.49.72s-.49.27-.81.27-.61-.09-.83-.27ZM574.17,237.78c.24-.09.44-.21.6-.35s.28-.31.37-.48h.05v.84h1.39v-4.1c0-.41-.07-.74-.22-1.02-.15-.27-.34-.49-.58-.64s-.51-.27-.8-.34c-.29-.07-.58-.1-.88-.1-.43,0-.82.06-1.17.19-.35.13-.65.32-.9.57-.24.25-.42.56-.53.94l1.35.19c.07-.21.21-.39.42-.55s.49-.23.84-.23c.33,0,.59.08.77.25.18.17.27.4.27.7v.02c0,.14-.05.24-.15.3-.1.06-.27.11-.49.14s-.51.06-.87.1c-.3.03-.58.08-.86.15-.28.07-.53.17-.75.31-.22.13-.39.32-.52.54-.13.23-.19.51-.19.86,0,.4.09.74.27,1.01.18.27.42.48.73.62.31.14.66.21,1.05.21.32,0,.6-.04.84-.13ZM572.97,236.65c-.19-.14-.29-.34-.29-.6,0-.19.05-.34.15-.46.1-.12.23-.21.4-.28.17-.07.36-.11.58-.14.1-.01.21-.03.34-.05s.26-.04.39-.06c.13-.02.25-.05.36-.08.11-.03.18-.07.23-.1v.72c0,.23-.06.44-.17.63-.12.19-.28.34-.49.46s-.46.17-.75.17-.55-.07-.74-.2ZM577.67,231.67v1.12h3.52v-1.12h-3.52ZM578.54,236.19c0,.38.08.7.25.96.17.26.4.44.69.56.29.12.62.18.98.17.21,0,.38-.02.52-.06s.25-.06.33-.09l-.24-1.13s-.1.02-.17.04c-.08.01-.16.02-.25.02-.12,0-.23-.02-.33-.06-.1-.04-.18-.11-.24-.21-.06-.1-.09-.25-.09-.44v-5.75h-1.44v5.99ZM583.83,230.57c.16-.15.24-.34.24-.55s-.08-.4-.24-.56c-.16-.15-.36-.23-.59-.23s-.43.08-.59.23c-.17.15-.25.34-.25.56s.08.4.25.55c.16.15.36.23.59.23s.43-.08.59-.23ZM583.96,237.79v-6.12h-1.44v6.12h1.44ZM587.16,233.45c.11-.21.26-.36.46-.48.19-.11.42-.17.67-.17.37,0,.66.12.87.35s.32.55.32.96v3.68h1.44v-3.9c0-.49-.08-.9-.26-1.25s-.42-.61-.73-.79-.68-.27-1.11-.27c-.46,0-.84.1-1.15.3-.31.2-.53.47-.68.82h-.07v-1.04h-1.38v6.12h1.44v-3.59c0-.3.05-.55.17-.75ZM596.65,239.96c.43-.17.78-.43,1.02-.77s.38-.78.38-1.3v-6.22h-1.42v1.01h-.08c-.07-.15-.18-.31-.32-.48-.14-.17-.32-.31-.56-.43-.23-.12-.53-.18-.89-.18-.47,0-.9.12-1.28.36s-.69.59-.91,1.06c-.23.46-.34,1.03-.34,1.7s.11,1.22.34,1.66c.22.44.53.78.91,1,.38.22.81.33,1.28.33.35,0,.64-.05.87-.16.23-.11.42-.24.56-.39s.25-.31.33-.46h.07v1.16c0,.45-.13.78-.4.97-.27.2-.61.3-1.02.3-.29,0-.53-.04-.72-.12-.19-.08-.34-.18-.45-.29s-.2-.24-.26-.36l-1.3.32c.09.28.24.54.47.78s.52.42.9.56.82.21,1.34.21c.55,0,1.04-.09,1.48-.26ZM594.39,236.34c-.22-.16-.38-.37-.49-.65-.11-.28-.17-.61-.17-.98s.06-.7.16-.99c.11-.29.27-.52.49-.69.22-.17.48-.25.8-.25s.57.08.79.24c.21.16.38.39.49.68.11.29.17.63.17,1.01s-.06.73-.17,1c-.11.28-.27.49-.49.64-.22.15-.48.22-.78.22s-.58-.08-.8-.23ZM300.35,168.79l-6.09,25.6-6.68-25.6h-8.02l-6.68,25.53-6.09-25.53h-9.48l10.95,38.3h8.33l6.99-24.06,6.97,24.06h8.31l10.97-38.3h-9.48ZM325.88,200.16c-.26.06-.56.12-.92.17-1.3.18-2.23.02-2.69-.48-.35-.37-.52-.98-.52-1.81v-13.22h5.32v-6.66h-5.32v-6.7h-8.55v6.7h-3.86v6.66h3.86v14.25c0,2.65.81,4.74,2.42,6.21,1.59,1.46,3.87,2.2,6.76,2.2.79,0,1.6-.06,2.41-.18.8-.12,1.66-.31,2.54-.56l.34-.1-1.39-6.58-.39.1ZM410.09,175.87c1.09,1.97,1.65,4.26,1.65,6.81s-.56,4.82-1.66,6.76c-1.11,1.96-2.73,3.5-4.83,4.6-2.08,1.09-4.63,1.64-7.57,1.64h-6.29v12.17h-8.68v-38.3h15.17c2.89,0,5.4.56,7.45,1.67,2.06,1.11,3.66,2.68,4.76,4.65ZM402.78,182.68c0-1.19-.24-2.23-.7-3.11-.46-.87-1.15-1.53-2.09-2.02s-2.17-.74-3.63-.74h-4.98v11.75h5.01c1.46,0,2.67-.25,3.61-.76.92-.5,1.62-1.19,2.08-2.06.46-.88.7-1.92.7-3.07ZM440.87,185.21c1.06,2.19,1.6,4.96,1.6,8.23s-.52,5.89-1.55,8.08c-1.03,2.22-2.46,3.92-4.23,5.06-1.78,1.14-3.8,1.72-6.01,1.72-1.56,0-2.91-.27-4.02-.79-1.1-.52-2.01-1.2-2.71-2-.42-.49-.79-.98-1.1-1.48v14.34h-8.55v-39.46h8.42v4.25c.32-.56.72-1.13,1.19-1.69.68-.83,1.59-1.53,2.69-2.08s2.48-.83,4.1-.83c2.13,0,4.11.56,5.88,1.65,1.78,1.1,3.22,2.78,4.29,4.98ZM433.07,189.25c-.42-1.16-1.05-2.08-1.86-2.74-.81-.65-1.79-.97-3.01-.97s-2.16.31-2.98.94c-.82.63-1.46,1.54-1.89,2.7-.44,1.18-.67,2.61-.67,4.24s.23,3.03.68,4.22c.45,1.17,1.09,2.1,1.91,2.75.81.64,1.8.96,2.95.96s2.19-.33,2.98-.97c.81-.66,1.44-1.59,1.87-2.77.44-1.21.66-2.62.66-4.19s-.22-2.98-.64-4.16ZM456.08,175.46c.37-.44,1.08-.66,2.1-.66.46,0,.9.04,1.31.12.43.08.79.16,1.11.25l.38.1,1.54-6.59-.35-.1c-.49-.14-1.24-.31-2.24-.5-1.02-.2-2.16-.3-3.39-.3-1.81,0-3.46.35-4.89,1.05-1.45.7-2.6,1.77-3.44,3.17-.83,1.4-1.25,3.17-1.25,5.26v1.66h-3.98v6.66h3.98v22.27h8.52v-22.27h5.62v-6.66h-5.62v-1.48c0-.86.2-1.52.59-1.98ZM533.65,177.1c1.41-.94,3.07-1.41,4.93-1.41,1.07,0,2.05.15,2.94.45.88.3,1.68.73,2.37,1.28.68.55,1.25,1.22,1.67,2.01.43.8.72,1.7.87,2.69l.05.33h8.92l-.05-.43c-.26-2.25-.87-4.27-1.81-6.02-.94-1.75-2.18-3.26-3.67-4.48-1.49-1.21-3.23-2.15-5.16-2.78-1.93-.64-4.05-.96-6.3-.96-3.4,0-6.51.79-9.25,2.35-2.74,1.56-4.94,3.86-6.54,6.85-1.59,2.98-2.39,6.62-2.39,10.84s.8,7.81,2.38,10.77c1.58,2.97,3.77,5.28,6.51,6.85,2.73,1.56,5.86,2.36,9.29,2.36,2.48,0,4.75-.38,6.73-1.14,1.98-.76,3.72-1.8,5.17-3.1,1.45-1.3,2.61-2.8,3.46-4.46.85-1.66,1.38-3.41,1.59-5.21l.05-.43h-8.91l-.05.32c-.16.97-.48,1.85-.94,2.59-.46.75-1.04,1.39-1.71,1.91-.68.52-1.47.92-2.35,1.2-.88.28-1.85.42-2.89.42-1.85,0-3.5-.45-4.9-1.35-1.4-.89-2.51-2.25-3.29-4.02-.79-1.8-1.2-4.05-1.2-6.71s.4-4.83,1.18-6.63c.78-1.78,1.89-3.15,3.3-4.09ZM576.83,196l-.05.33c-.21,1.43-.76,2.55-1.62,3.35-.88.8-1.92,1.19-3.2,1.19-1.14,0-2.15-.32-2.99-.95-.85-.64-1.52-1.58-2-2.81-.49-1.25-.73-2.77-.73-4.53s.25-3.27.73-4.49c.47-1.2,1.14-2.11,2-2.73.84-.61,1.85-.91,2.99-.91.91,0,1.71.18,2.38.54.67.36,1.22.87,1.62,1.53.41.67.69,1.47.82,2.37l.05.33h8.22l-.02-.4c-.11-2.28-.73-4.3-1.86-5.99-1.13-1.69-2.68-3.02-4.6-3.95-1.92-.93-4.18-1.4-6.72-1.4-2.96,0-5.56.65-7.71,1.93-2.16,1.28-3.84,3.08-5.01,5.36-1.16,2.27-1.75,4.93-1.75,7.92s.58,5.59,1.73,7.86c1.16,2.27,2.84,4.07,5,5.36,2.15,1.29,4.76,1.94,7.74,1.94,2.61,0,4.91-.48,6.81-1.44,1.92-.96,3.44-2.32,4.54-4.04,1.09-1.71,1.71-3.72,1.83-5.97l.02-.4h-8.23Z"/>
</svg>